# xmcd
#
# Track frame offsets:
#  150
#  19682
#  36374
#  48996
#  65286
#  77331
#  93221
#  123529
#  136677
#  148342
#  161535
#  176810
#  190072
#  203406
#  219173
#  231065
#  243365
#  257107
#
# Disc length: 3590 seconds
#
# Revision: 0
# Processed by: cddbd v1.5.2PL0 Copyright (c) Steve Scherf et al.
# Submitted via: AltoMP3_Maker 3.0
#
DISCID=ec0e0412
DTITLE=Tom Russell - Heart on a Sleeve (remastered with bonus tracks)
DYEAR=1900
DGENRE=
TTITLE0=One and One
TTITLE1=Heart on a Sleeve
TTITLE2=Blinded by the Light of Love
TTITLE3=A Touch of Grey
TTITLE4=Wild Hearts
TTITLE5=St. Olav's Gate
TTITLE6=Gallo del Cielo
TTITLE7=Mandarin Oranges
TTITLE8=Cropduster
TTITLE9=Canadian Whiskey
TTITLE10=Chinese Silver
TTITLE11=A Bowl of Red
TTITLE12=When Does Forever Begin*
TTITLE13=Nightblind*
TTITLE14=Red Skye in the Morning*
TTITLE15=Hertland (demo)*
TTITLE16=The Dance*
TTITLE17=Lookin' South from a Northbound Train*
EXTD=
EXTT0=
EXTT1=
EXTT2=
EXTT3=
EXTT4=
EXTT5=
EXTT6=
EXTT7=
EXTT8=
EXTT9=
EXTT10=
EXTT11=
EXTT12=
EXTT13=
EXTT14=
EXTT15=
EXTT16=
EXTT17=
PLAYORDER=
